<svg xmlns="http://www.w3.org/2000/svg" viewBox="0 0 376.64 250.97"><path fill="#ffd600" fill-rule="evenodd" d="m318.39 19.68-13.37 66.43 69.94-.87-54.45 40.62 56.13 43.25-70.05-4.19 16.05 67.13L269.77 185l-31.55 59.59-10.95-67.88-64.37 24.17 36.08-56.95-67.08-22.56 66.25-19.38-38.41-58.73 65.41 27.27 8.24-67.43 33.96 61.15 51.04-44.57z"/><path d="M284.22 78.56c25.57 14.83 34.28 47.63 19.44 73.2-14.83 25.57-47.63 34.28-73.2 19.44-25.57-14.83-34.28-47.63-19.44-73.2 14.83-25.57 47.63-34.28 73.2-19.44Z" fill="#fff739" fill-rule="evenodd"/><path d="M64.77 158.76s11.26-47.04 80.61-46.09c49.6.68 83.13 30.99 83.13 69.15 0 1.34.05 2.44-.04 3.76 0 0 3.53-1.52 10.41-2.33 22.19-2.6 42.38 15.54 41.51 35.14 0 17.99-17.54 32.58-39.17 32.58H64.77C34.18 250.97 4 232.99.38 205.29c-3.83-29.36 21.73-50.41 44.74-50.75 12.95-.19 19.65 4.22 19.65 4.22Z" fill="#e1f8ff" fill-rule="evenodd"/><path d="M67.9 75.82c-3.92-4.56-2.46-12.02 3.27-16.65 5.72-4.64 13.55-4.7 17.47-.15-3.69-.88-9.33.56-13.92 4.27-4.59 3.72-7.05 8.85-6.82 12.53Z" fill-rule="evenodd"/><path d="M41.06 74.15c.47-5.94 6.86-10.38 14.27-9.89 7.41.48 13.04 5.7 12.57 11.64-2-3.12-7.05-5.87-12.99-6.26-5.94-.39-11.37 1.68-13.84 4.51ZM80.28 11.99c-2.61-2.25-1.99-6.45 1.39-9.38C85.05-.32 89.9-.87 92.51 1.38c-2.32-.24-5.77.92-8.48 3.26-2.71 2.35-4.04 5.33-3.75 7.34Z" fill-rule="evenodd"/><path d="M63.55 12.83c.06-3.3 3.86-6.16 8.48-6.38 4.62-.22 8.32 2.28 8.25 5.58-1.36-1.58-4.61-2.77-8.31-2.59-3.7.18-7 1.67-8.42 3.39ZM151.99 40.56c-3.28-4.04-1.76-10.44 3.39-14.28s12-3.68 15.28.36c-3.2-.86-8.18.22-12.31 3.3-4.13 3.08-6.45 7.44-6.37 10.62Z" fill-rule="evenodd"/><path d="M128.58 38.37c.6-5.12 6.33-8.76 12.79-8.14 6.46.62 11.22 5.28 10.62 10.4-1.65-2.75-5.98-5.27-11.16-5.77s-10 1.13-12.25 3.5Z" fill-rule="evenodd"/></svg>