<svg xmlns="http://www.w3.org/2000/svg" viewBox="0 0 376.64 250.97"><path fill="#fff67d" fill-rule="evenodd" d="m64.61 56.46 4.53 13.93h14.64L71.93 79l4.53 13.93-11.85-8.61-11.85 8.61L57.29 79l-11.85-8.61h14.64l4.53-13.93z"/><path fill="#fff897" fill-rule="evenodd" d="m150.14 7.34 3.62 11.16h11.73L156 25.39l3.62 11.16-9.48-6.9-9.49 6.9 3.62-11.16-9.49-6.89h11.73l3.63-11.16z"/><path fill="#fff56b" fill-rule="evenodd" d="m337.54 39.18 5.44 16.73h17.58l-14.23 10.33 5.44 16.73-14.23-10.34-14.23 10.34 5.44-16.73-14.23-10.33h17.59l5.43-16.73zM264.88 18.21l1.59 4.89h5.14l-4.16 3.02 1.59 4.89-4.16-3.02-4.16 3.02 1.59-4.89-4.16-3.02h5.14l1.59-4.89zM35.27 10.92l2.27 7h7.36l-5.95 4.33 2.27 7-5.95-4.33-5.95 4.33 2.27-7-5.95-4.33H33l2.27-7zM16.77 127.18l2.28 7h7.36l-5.96 4.32 2.28 7-5.96-4.32-5.95 4.32 2.28-7-5.96-4.32h7.36l2.27-7z"/><path d="M198.72 34.74c-8.68 36.28 3.87 75.95 35.26 100.24 35.47 27.44 83.9 26.68 118.22 1.16-6.27 25.98-23.09 49.32-48.42 63.07-47.45 25.75-106.89 8.14-132.64-39.31-23.51-43.31-10.88-96.6 27.58-125.16Z" fill="#f7d134" fill-rule="evenodd"/><path d="M54.85 176.69c-.04-1.04-.06-2.08-.06-3.12 0-42.14 34.21-76.35 76.35-76.35s76.35 34.21 76.35 76.35c0 0 10.31-11.12 29.19-8.18 18.18 2.83 23.64 13.72 27.37 26.9 5.28-3.88 11.8-6.17 18.85-6.17 17.61 0 31.9 14.29 31.9 31.9s-14.29 31.9-31.9 31.9H47.03c-20.44 0-37.03-16.59-37.03-37.03s16.59-37.03 37.03-37.03c2.68 0 5.29.29 7.81.83Z" fill="#84a4aa" fill-rule="evenodd"/></svg>